<svg width="300" height="300" viewBox="0 0 300 300" fill="none" xmlns="http://www.w3.org/2000/svg">
<g clip-path="url(#clip0_4_68)">
<path d="M68.8877 296L7.77809 296L7.77809 294.533C10.8502 294.387 17.8117 294.405 24.5866 293.951C105.666 288.516 122.511 271.285 210.43 190.924C225.641 177.021 235.389 166.466 240.84 160.129C244.659 155.688 246.369 153.318 246.369 153.318C246.369 153.318 258.933 141.032 274.014 150C274.014 141.032 260.247 136.701 254.463 132.856C232.546 115.712 219.893 126.685 203.256 130.191C203.256 64.2633 111.205 6.3042 7.93472 5.46732L7.93472 3.99999L68.8878 4C161.813 4 253.242 105.088 300 149.567C235.864 226.871 121.966 296 68.8877 296Z" fill="white"/>
</g>
<defs>
<clipPath id="clip0_4_68">
<rect width="300" height="300" fill="white"/>
</clipPath>
</defs>
</svg>
